<?xml version="1.0" standalone="no"?>
<!DOCTYPE svg PUBLIC "-//W3C//DTD SVG 20010904//EN"
 "http://www.w3.org/TR/2001/REC-SVG-20010904/DTD/svg10.dtd">
<svg version="1.0" xmlns="http://www.w3.org/2000/svg"
 width="1600.000000pt" height="896.000000pt" viewBox="0 0 1600.000000 896.000000"
 preserveAspectRatio="xMidYMid meet">

<g transform="translate(0.000000,896.000000) scale(0.100000,-0.100000)"
fill="#000000" stroke="none">
<path d="M5864 7069 c-10 -12 -47 -41 -81 -66 -35 -25 -63 -49 -63 -54 0 -5
76 -9 175 -9 191 0 214 5 254 56 26 33 26 49 1 74 -34 34 -68 26 -116 -27
l-43 -46 -7 27 c-8 32 -48 66 -79 66 -12 0 -30 -10 -41 -21z"/>
<path d="M8757 6964 c-66 -20 -127 -83 -150 -153 -16 -50 -17 -164 -17 -1655
0 -1098 3 -1613 11 -1639 13 -49 73 -115 124 -138 38 -17 86 -19 805 -18 596
0 773 3 801 13 50 18 103 63 131 110 l23 41 0 1640 0 1640 -29 49 c-36 60 -92
101 -157 115 -33 7 -293 11 -772 10 -609 0 -730 -3 -770 -15z m1014 -200 c9
-11 10 -20 2 -32 -9 -15 -36 -17 -234 -17 -208 0 -224 1 -227 18 -9 46 -6 47
226 47 188 0 221 -2 233 -16z m164 -778 c15 -23 14 -42 -19 -272 -22 -161 -39
-250 -48 -255 -25 -17 -46 -9 -82 31 -27 30 -36 49 -36 75 0 19 -3 35 -7 35
-5 0 -26 16 -47 36 -35 32 -41 35 -63 23 -12 -7 -23 -16 -23 -21 0 -15 -27 -8
-44 10 -15 18 -15 22 11 67 l26 48 -27 24 c-18 15 -40 23 -65 23 -68 0 -165
108 -122 135 11 6 94 18 291 40 74 8 149 16 165 18 66 8 75 7 90 -17z m-395
-416 c0 -21 -414 -430 -435 -430 -18 0 -30 62 -17 86 6 11 99 106 206 213
l196 194 25 -23 c14 -13 25 -31 25 -40z m125 -209 c17 -10 79 -66 139 -123
101 -97 108 -107 102 -134 -7 -32 -48 -74 -72 -74 -7 0 -31 15 -51 34 -46 40
-80 59 -93 51 -6 -4 -10 -63 -10 -137 0 -108 -3 -135 -17 -150 -21 -23 -45
-23 -67 1 -16 17 -17 33 -11 130 4 60 5 121 1 135 -7 30 -36 35 -57 9 -28 -33
-90 -72 -107 -66 -32 11 -62 46 -62 72 0 20 29 55 122 148 68 68 130 123 138
123 8 0 29 -9 45 -19z m-37 -1520 c48 -25 87 -66 106 -113 54 -129 -50 -278
-193 -278 -63 0 -97 13 -140 53 -87 83 -93 205 -13 291 60 63 167 84 240 47z"/>
<path d="M9466 3772 c-62 -43 -81 -107 -52 -177 42 -99 203 -100 249 -2 30 63
14 132 -40 171 -39 29 -120 32 -157 8z"/>
<path d="M6337 6924 c-4 -4 -7 -49 -7 -100 0 -81 2 -92 19 -97 36 -9 42 6 39
104 -3 86 -5 94 -23 97 -12 2 -24 0 -28 -4z"/>
<path d="M6484 6917 c-3 -8 -4 -52 -2 -98 3 -80 4 -84 27 -87 13 -2 28 2 32
10 10 15 12 148 3 172 -7 19 -53 21 -60 3z"/>
<path d="M6647 6924 c-4 -4 -7 -47 -7 -95 0 -76 3 -90 19 -98 33 -18 42 8 39
106 -3 80 -5 88 -23 91 -12 2 -24 0 -28 -4z"/>
<path d="M6796 6913 c-3 -10 -4 -54 -1 -97 4 -83 15 -102 47 -85 17 9 18 21
16 102 -3 91 -3 92 -30 95 -18 2 -28 -2 -32 -15z"/>
<path d="M6954 6917 c-3 -8 -4 -52 -2 -98 3 -83 3 -84 31 -87 l27 -3 0 100 0
101 -25 0 c-14 0 -28 -6 -31 -13z"/>
<path d="M7117 6924 c-11 -12 -8 -179 4 -191 6 -6 19 -8 30 -6 18 5 19 13 17
102 -3 88 -5 96 -23 99 -12 2 -24 0 -28 -4z"/>
<path d="M7494 6836 c-8 -21 3 -36 27 -36 15 0 20 6 17 22 -4 27 -35 37 -44
14z"/>
<path d="M7614 6835 c-4 -9 -2 -21 4 -27 16 -16 47 -5 47 17 0 26 -42 34 -51
10z"/>
<path d="M7736 6834 c-4 -10 -2 -22 3 -27 15 -15 46 -3 46 18 0 26 -40 33 -49
9z"/>
<path d="M7854 6836 c-8 -21 3 -36 27 -36 15 0 20 6 17 22 -4 27 -35 37 -44
14z"/>
<path d="M7974 6835 c-4 -9 -2 -21 4 -27 15 -15 44 -1 40 19 -4 23 -36 29 -44
8z"/>
<path d="M5687 6803 c-20 -5 -20 -4 8 -50 22 -36 108 -73 188 -80 56 -6 83 10
55 31 -16 12 -16 14 2 44 24 39 44 42 37 6 -4 -20 2 -33 27 -55 41 -38 67 -44
105 -25 42 22 39 44 -12 94 l-43 42 -174 -1 c-96 -1 -183 -3 -193 -6z"/>
<path d="M4854 6315 c-161 -35 -292 -145 -364 -305 l-25 -55 -3 -1817 -2
-1818 3539 0 3538 0 6 53 c4 28 6 826 7 1772 0 1892 3 1795 -62 1916 -69 131
-217 238 -358 260 -36 5 -168 8 -295 7 l-230 -3 -5 -1435 c-5 -1360 -6 -1437
-23 -1468 -28 -51 -87 -112 -144 -149 -57 -36 -84 -41 -103 -18 -11 13 -111
15 -789 15 -899 0 -849 -5 -942 89 -97 96 -89 -37 -89 1568 l0 1403 -60 0 -60
0 0 -224 c0 -222 0 -225 21 -228 48 -7 51 -68 4 -68 -22 0 -25 -4 -25 -35 0
-31 3 -35 25 -35 18 0 26 -7 31 -24 8 -32 -2 -46 -32 -46 l-24 0 0 -1100 0
-1100 -25 -12 c-58 -26 -55 -89 -55 1113 l0 1098 -32 3 c-29 3 -33 6 -33 33 0
27 4 30 33 33 29 3 32 6 32 37 0 31 -3 34 -32 37 -29 3 -33 6 -33 33 0 27 4
30 33 33 l32 3 -2 222 -3 222 -1695 2 c-1376 1 -1706 -1 -1756 -12z m398 -425
c25 -26 29 -36 24 -63 -8 -38 -31 -63 -68 -72 -23 -6 -34 -1 -64 29 -30 30
-35 41 -29 63 8 34 53 73 83 73 13 0 37 -14 54 -30z m326 -6 c26 -30 27 -45 7
-85 -29 -55 -97 -61 -135 -12 -28 36 -25 70 10 105 26 25 36 29 63 24 18 -3
42 -17 55 -32z m2012 -758 c0 -10 -61 -260 -64 -263 -2 -2 -22 16 -45 39 l-41
43 -428 -428 c-415 -415 -429 -427 -466 -427 -31 0 -45 7 -72 35 -26 27 -40
35 -69 35 -33 0 -46 -10 -140 -104 -82 -83 -113 -108 -147 -117 -24 -7 -56
-25 -73 -40 -36 -33 -81 -44 -120 -29 -26 10 -32 8 -58 -19 -30 -29 -30 -30
-12 -57 l17 -27 -63 -59 c-100 -93 -122 -101 -276 -107 l-132 -6 -30 -34 c-19
-21 -34 -30 -43 -25 -7 4 -10 3 -5 -1 9 -10 -31 -55 -50 -55 -32 0 -22 30 22
71 82 76 98 82 220 87 105 4 111 5 141 33 17 16 34 26 38 22 4 -5 6 -3 4 4 -1
6 43 58 100 116 63 65 102 112 102 125 0 60 101 91 151 46 12 -11 28 -13 53
-9 28 6 53 26 121 100 l85 93 0 76 0 76 42 40 c23 21 55 42 70 45 15 4 41 19
58 35 40 38 65 45 101 29 29 -11 59 -53 59 -82 0 -8 -12 -26 -26 -41 -36 -35
-116 -38 -144 -4 -15 19 -22 21 -45 13 -41 -15 -68 -57 -69 -107 l-1 -43 46
-3 c37 -2 50 2 73 23 30 27 91 34 124 14 16 -10 65 35 398 370 208 211 380
389 382 396 2 8 -8 27 -22 42 -14 15 -26 33 -26 38 0 6 50 18 113 27 129 18
147 20 147 14z m-54 -820 l34 -34 0 -616 0 -616 -155 0 -155 0 0 550 c0 340
-4 550 -9 550 -11 0 -119 -104 -174 -168 -37 -42 -38 -43 -118 -49 -75 -6 -84
-9 -109 -37 -108 -122 -151 -168 -178 -191 -17 -14 -33 -39 -37 -55 -8 -38
-62 -80 -103 -80 -19 0 -41 10 -59 26 -38 35 -86 28 -127 -18 -16 -18 -54 -61
-85 -95 -31 -34 -68 -77 -83 -96 -20 -26 -37 -36 -69 -41 -26 -4 -56 -19 -77
-37 -43 -38 -83 -34 -124 11 l-28 30 -219 0 c-162 0 -223 -3 -233 -12 -65 -62
-149 -128 -161 -128 -8 0 -18 7 -21 15 -7 18 20 46 142 148 l34 27 238 0 c206
0 239 2 251 16 34 41 92 36 136 -11 12 -13 30 -22 40 -20 10 2 23 4 30 4 6 1
24 18 40 40 44 60 145 171 175 192 15 11 46 22 70 25 30 4 51 15 70 35 29 31
60 37 102 18 23 -11 29 -8 74 37 27 27 69 74 93 104 106 131 110 134 191 138
l73 5 125 130 c85 88 127 140 132 161 3 17 18 41 33 53 23 20 37 23 117 23 89
0 90 0 124 -34z m579 -247 c46 -17 55 -24 55 -45 0 -35 -24 -40 -87 -19 -65
22 -79 36 -63 64 13 26 26 26 95 0z m-1493 -88 c31 -35 35 -68 13 -111 -18
-34 -42 -42 -111 -38 -44 3 -51 7 -74 41 l-24 39 -111 -116 c-111 -117 -139
-136 -200 -136 -28 0 -37 -6 -50 -30 -19 -36 -69 -64 -101 -56 -59 15 -85 95
-44 136 31 31 65 35 104 11 29 -18 43 -20 93 -15 58 7 58 7 158 108 55 56 129
125 165 155 61 50 67 53 109 48 34 -4 52 -13 73 -36z m1518 -97 c12 -32 -3
-46 -58 -52 -77 -7 -102 2 -102 37 0 34 14 39 99 37 45 -1 55 -5 61 -22z m31
-135 c14 -28 1 -41 -70 -68 -60 -23 -81 -16 -81 24 0 19 10 27 58 43 73 26 79
26 93 1z m-1092 -125 l31 -26 0 -274 0 -274 -127 0 c-104 0 -130 3 -145 17
-17 15 -18 37 -18 270 l0 255 29 29 c28 27 34 29 114 29 77 0 88 -2 116 -26z
m-486 -205 c58 -31 65 -122 10 -144 -57 -23 -143 -6 -157 31 -12 32 -51 15
-96 -43 -105 -136 -153 -174 -240 -188 -30 -5 -56 -17 -77 -37 -27 -26 -37
-30 -68 -25 -21 3 -42 13 -49 21 -9 14 -51 16 -276 18 -257 3 -265 4 -265 23
0 19 8 20 261 25 l262 5 27 28 c33 32 72 35 108 7 62 -49 162 -3 251 115 50
66 107 115 133 115 13 0 26 7 30 16 13 35 103 55 146 33z m48 -287 c16 -18 29
-43 29 -57 l0 -25 -141 0 c-125 0 -140 2 -135 16 3 9 6 25 6 37 0 40 48 62
135 62 74 0 78 -1 106 -33z m1993 -12 c-3 -93 -48 -148 -85 -104 -10 13 -9 27
10 85 21 66 24 70 49 67 25 -3 27 -6 26 -48z m1904 38 c6 -7 18 -42 27 -78 16
-61 16 -65 -1 -77 -40 -29 -60 -9 -76 77 -11 57 -10 64 7 76 23 17 30 17 43 2z
m-1728 -43 c24 -29 -15 -155 -48 -155 -35 0 -44 23 -31 77 20 83 50 113 79 78z
m1556 -20 c8 -20 17 -55 20 -79 6 -38 4 -45 -13 -50 -35 -11 -50 4 -67 63 -21
75 -14 92 37 100 4 0 15 -15 23 -34z"/>
<path d="M11896 6254 c-41 -40 4 -105 57 -85 16 6 29 21 33 36 13 50 -53 86
-90 49z"/>
<path d="M12278 5962 c-51 -46 -62 -67 -48 -92 16 -30 54 -25 83 10 14 17 34
30 45 30 11 0 41 -26 71 -60 l53 -60 -21 -41 c-34 -64 -24 -109 24 -109 28 0
51 26 59 68 3 17 9 45 12 62 9 42 -2 74 -37 115 -54 62 -109 98 -157 105 -42
7 -48 5 -84 -28z"/>
<path d="M3975 5969 c-4 -11 -3 -25 2 -30 6 -6 52 -8 104 -7 93 3 94 3 94 28
0 25 -1 25 -97 28 -91 3 -97 1 -103 -19z"/>
<path d="M3986 5785 c-12 -12 -13 -21 -6 -36 9 -16 22 -19 93 -19 95 0 130 15
111 47 -16 26 -174 32 -198 8z"/>
<path d="M3982 5601 c-8 -4 -12 -17 -10 -27 3 -17 13 -19 103 -19 100 0 100 0
100 25 0 25 -1 25 -90 28 -49 1 -96 -2 -103 -7z"/>
<path d="M3977 5408 c-2 -7 -2 -20 0 -29 4 -14 18 -16 96 -12 96 5 114 11 104
37 -5 13 -24 16 -101 16 -67 0 -96 -4 -99 -12z"/>
<path d="M4092 4848 c-30 -30 3 -77 40 -57 30 16 16 69 -17 69 -6 0 -16 -5
-23 -12z"/>
<path d="M4097 4729 c-39 -22 -4 -79 35 -58 10 5 18 18 18 29 0 25 -30 41 -53
29z"/>
<path d="M4085 4590 c-7 -23 10 -50 30 -50 20 0 37 27 30 50 -4 13 -15 20 -30
20 -15 0 -26 -7 -30 -20z"/>
<path d="M4091 4476 c-21 -26 -9 -51 24 -51 27 0 30 3 30 30 0 23 -5 31 -21
33 -11 2 -26 -4 -33 -12z"/>
<path d="M3316 4370 c-83 -25 -124 -139 -77 -216 l19 -32 -45 -43 c-93 -91
-147 -159 -134 -172 9 -9 35 13 111 88 l100 100 49 -3 c103 -7 167 55 159 154
-5 64 -40 108 -97 124 -41 11 -46 11 -85 0z m67 -81 c28 -15 37 -28 37 -58 0
-52 -68 -82 -104 -45 -24 24 -20 80 6 98 27 19 33 19 61 5z"/>
<path d="M12218 3883 c-175 -175 -317 -322 -315 -328 2 -5 11 -10 19 -10 8 0
158 141 333 313 300 296 339 342 293 342 -7 0 -155 -143 -330 -317z"/>
<path d="M4046 3971 c-66 -67 -61 -96 6 -36 31 29 42 34 49 24 12 -20 1 -49
-30 -75 -14 -12 -34 -35 -43 -52 -15 -25 -16 -32 -4 -41 11 -9 18 -4 35 24 11
19 25 35 31 35 6 0 10 -53 10 -150 0 -127 2 -150 15 -150 13 0 15 24 15 153
l1 152 34 -37 c20 -21 40 -38 45 -38 22 0 7 34 -35 79 -30 32 -45 57 -45 75 0
35 12 33 61 -11 33 -30 42 -34 50 -22 7 10 -6 28 -53 71 -35 32 -68 57 -73 58
-6 0 -37 -26 -69 -59z"/>
<path d="M11854 3688 l-69 -73 5 -90 5 -90 108 -3 108 -3 64 62 c63 60 64 62
50 89 -12 24 -33 40 -52 40 -3 0 2 -11 10 -24 15 -22 14 -25 -37 -75 l-52 -51
-87 0 -87 0 1 68 0 67 65 59 c54 49 67 56 79 46 23 -19 29 -5 10 24 -10 14
-25 26 -34 26 -10 0 -49 -33 -87 -72z"/>
<path d="M4096 3452 c-9 -14 12 -35 28 -29 23 9 20 37 -3 37 -11 0 -22 -4 -25
-8z"/>
<path d="M4101 3326 c-14 -17 -7 -36 14 -36 22 0 29 20 13 36 -13 13 -16 13
-27 0z"/>
<path d="M12301 3289 c-26 -10 -187 -147 -242 -206 -42 -44 -51 -71 -38 -118
22 -79 103 -98 168 -40 21 19 41 35 45 35 3 0 6 -54 6 -119 l0 -119 37 -32
c32 -29 41 -32 81 -27 30 3 53 13 70 31 25 24 26 32 29 137 1 61 5 114 7 117
3 2 21 -9 41 -27 48 -42 95 -42 136 -2 24 24 29 38 29 78 l0 48 -117 113
c-143 138 -183 159 -252 131z"/>
<path d="M4103 3199 c-14 -14 -6 -39 12 -39 18 0 26 27 11 39 -9 7 -16 7 -23
0z"/>
<path d="M4097 3064 c-9 -10 4 -34 19 -34 8 0 14 9 14 20 0 19 -19 27 -33 14z"/>
<path d="M3760 2158 c0 -7 21 -55 46 -108 65 -132 162 -229 295 -294 52 -24
122 -52 156 -60 55 -15 432 -16 3765 -14 l3703 3 86 31 c198 71 358 227 424
413 l14 41 -1688 0 -1688 0 -13 -45 c-8 -29 -25 -56 -47 -75 l-34 -30 -774 0
-774 0 -34 30 c-22 19 -39 46 -47 75 l-13 45 -1688 0 c-1310 0 -1689 -3 -1689
-12z"/>
</g>
</svg>
