<?xml version="1.0" standalone="no"?>
<!DOCTYPE svg PUBLIC "-//W3C//DTD SVG 20010904//EN"
 "http://www.w3.org/TR/2001/REC-SVG-20010904/DTD/svg10.dtd">
<svg version="1.0" xmlns="http://www.w3.org/2000/svg"
 width="1600.000000pt" height="896.000000pt" viewBox="0 0 1600.000000 896.000000"
 preserveAspectRatio="xMidYMid meet">

<g transform="translate(0.000000,896.000000) scale(0.100000,-0.100000)"
fill="#000000" stroke="none">
<path d="M7800 7623 c-428 -29 -848 -141 -1210 -323 -438 -220 -811 -530
-1112 -925 -62 -82 -177 -256 -220 -335 -20 -36 -48 -86 -62 -112 -50 -90
-145 -316 -190 -450 -124 -373 -173 -705 -163 -1101 10 -413 87 -771 249
-1162 315 -760 960 -1393 1738 -1705 350 -140 688 -208 1077 -217 390 -9 721
35 1054 143 886 285 1607 948 1956 1797 109 267 174 505 220 812 25 172 26
648 0 823 -88 596 -282 1069 -628 1527 -344 456 -880 851 -1414 1041 -418 149
-879 216 -1295 187z m249 -813 c31 0 86 -44 76 -60 -4 -7 -1 -10 7 -8 8 2 30
-15 49 -37 19 -22 37 -41 42 -43 4 -2 7 -10 7 -18 0 -8 5 -14 11 -14 6 0 9 -7
5 -15 -4 -10 1 -15 14 -15 11 0 20 -5 20 -11 0 -5 -4 -7 -10 -4 -5 3 -10 2
-10 -3 0 -6 11 -13 25 -16 16 -4 23 -11 19 -18 -4 -6 3 -18 16 -28 14 -11 23
-28 23 -46 0 -16 2 -23 4 -16 7 17 23 15 23 -4 0 -9 5 -12 12 -8 7 4 8 3 4 -5
-5 -7 0 -20 11 -29 38 -37 87 -95 73 -87 -8 4 3 -12 25 -36 22 -24 43 -45 47
-47 4 -2 5 -9 2 -16 -3 -7 6 -21 20 -30 15 -9 26 -22 26 -30 0 -7 18 -32 40
-56 22 -24 40 -46 40 -50 0 -4 11 -17 25 -30 14 -13 23 -26 20 -28 -3 -3 15
-28 39 -57 24 -28 49 -70 55 -93 7 -23 14 -42 17 -42 4 0 3 8 -1 18 -4 12 -3
14 5 6 15 -15 20 -79 8 -120 -12 -44 -55 -94 -79 -94 -12 0 -17 -4 -14 -11 4
-6 1 -9 -6 -8 -8 2 -30 -2 -49 -8 -19 -6 -63 -14 -97 -17 -40 -4 -82 -16 -115
-33 -60 -31 -77 -49 -78 -80 0 -13 -5 -23 -11 -23 -6 0 -10 -25 -9 -62 0 -35
-1 -138 -4 -230 -2 -97 0 -168 5 -168 5 0 7 -10 4 -23 -4 -12 -1 -35 4 -50 8
-20 7 -27 -2 -27 -6 -1 -1 -7 13 -15 l25 -14 -25 -2 c-14 -1 0 -5 30 -10 30
-4 288 -8 574 -8 509 -1 519 -1 552 -22 19 -11 40 -31 47 -42 9 -17 13 -224
17 -877 l5 -855 70 -3 c112 -4 115 -5 115 -57 0 -57 -13 -84 -57 -117 -29 -23
-47 -28 -90 -28 -46 0 -54 3 -51 18 2 13 16 18 56 22 65 7 94 33 96 87 l1 38
-70 -1 -70 -2 -5 -48 c-7 -58 -21 -82 -64 -112 -32 -22 -38 -22 -415 -22 -243
0 -389 4 -402 10 -12 7 -427 10 -1261 10 -1217 0 -1244 0 -1275 19 -49 31 -65
61 -61 123 l3 53 1253 3 1252 2 0 53 0 52 -1095 -3 -1095 -2 0 816 0 816 34
34 34 34 525 0 c288 0 538 3 555 6 l30 6 0 297 c0 168 -3 285 -8 271 -6 -19
-8 -9 -10 40 -1 46 -4 59 -10 45 -8 -19 -9 -19 -9 3 -1 12 -5 22 -10 22 -6 0
-27 10 -48 22 -41 25 -38 24 -143 37 -41 5 -88 16 -105 25 -16 9 -37 16 -46
16 -10 0 -31 16 -48 35 -25 29 -31 45 -31 80 0 46 37 138 52 129 4 -3 5 3 1
12 -3 10 -2 15 3 12 5 -4 10 5 11 20 0 14 8 29 16 33 8 5 20 22 26 37 7 16 22
34 34 39 13 6 23 21 24 33 2 21 40 57 55 53 4 -2 5 3 3 10 -3 6 9 27 26 45 22
24 29 38 24 55 -4 14 -3 18 3 9 6 -9 18 -1 44 33 20 25 38 42 40 38 3 -4 3 -3
2 4 -5 20 20 63 34 58 7 -3 11 -1 7 4 -10 17 7 43 26 38 11 -3 17 -1 14 4 -3
4 1 20 10 33 9 14 14 30 10 35 -3 6 0 9 7 6 8 -3 21 11 32 36 11 22 24 43 29
46 5 3 4 -5 -3 -18 -11 -23 -10 -23 4 -5 9 11 16 24 16 29 0 10 26 41 73 88
15 15 27 35 27 44 0 11 5 15 14 12 15 -6 40 16 30 26 -3 3 1 16 10 29 9 12 16
17 16 9 0 -7 16 1 38 19 29 24 43 30 66 26 16 -4 40 -6 55 -6z m-189 -84 c0
-3 -4 -8 -10 -11 -5 -3 -10 -1 -10 4 0 6 5 11 10 11 6 0 10 -2 10 -4z m-275
-4186 l0 -165 -175 -5 c-168 -5 -177 -6 -224 -32 -27 -16 -54 -28 -61 -28 -6
0 -18 -15 -26 -32 -25 -59 -109 -45 -109 17 0 36 43 61 76 46 21 -9 35 -6 104
29 l80 40 150 0 150 0 0 151 c0 138 1 150 18 147 15 -3 17 -19 17 -168z m223
-72 l-3 -243 -129 -87 c-91 -61 -133 -96 -142 -117 -16 -37 -47 -48 -79 -27
-50 33 -20 103 39 93 26 -5 50 7 153 76 l123 82 0 233 c0 226 1 232 20 232 20
0 20 -5 18 -242z m212 -131 c0 -361 1 -375 20 -392 29 -26 26 -71 -6 -91 -24
-16 -27 -16 -52 3 -32 24 -39 55 -18 76 14 14 16 65 16 390 0 205 3 377 7 380
3 4 12 7 20 7 11 0 13 -69 13 -373z m210 201 l0 -173 128 -133 c92 -96 133
-132 150 -132 63 0 87 -63 37 -96 -23 -15 -27 -15 -50 0 -15 10 -25 26 -25 41
0 18 -37 61 -140 164 l-140 140 0 174 c0 95 3 177 7 180 3 4 12 7 20 7 10 0
13 -35 13 -172z m208 54 l3 -112 48 0 c46 0 50 -3 111 -66 l64 -66 165 3 165
4 15 -27 c14 -24 14 -28 -3 -47 -26 -29 -62 -27 -82 4 -16 25 -18 25 -149 25
l-133 0 -57 65 c-53 60 -60 65 -99 65 -89 0 -86 -4 -86 142 0 118 2 129 18
126 15 -3 17 -18 20 -116z"/>
<path d="M8180 6670 c0 -5 5 -10 11 -10 5 0 7 5 4 10 -3 6 -8 10 -11 10 -2 0
-4 -4 -4 -10z"/>
<path d="M7958 6513 c-9 -2 -15 -10 -12 -18 3 -8 -6 -20 -23 -28 -15 -8 -37
-24 -47 -36 -23 -26 -37 -27 -30 -3 5 14 4 14 -4 2 -6 -8 -8 -18 -6 -22 3 -4
1 -16 -4 -25 -6 -11 -7 -26 -1 -41 8 -22 8 -23 -6 -12 -8 7 -12 16 -9 21 3 5
1 9 -4 9 -13 0 -64 -98 -57 -110 3 -5 0 -7 -8 -4 -9 3 -24 -7 -38 -28 -13 -18
-27 -36 -32 -39 -5 -4 -3 -9 4 -12 9 -4 10 -6 2 -6 -7 -1 -10 -8 -7 -18 5 -15
4 -16 -5 -3 -9 13 -12 13 -20 1 -5 -7 -14 -11 -20 -7 -7 5 -9 1 -5 -9 4 -9 13
-14 20 -11 21 8 18 3 -21 -37 -19 -20 -35 -33 -35 -30 0 3 -7 0 -15 -7 -9 -7
-14 -18 -12 -24 3 -6 0 -19 -5 -30 -6 -10 -13 -39 -17 -65 -4 -28 -12 -45 -19
-43 -9 1 -8 -6 3 -22 16 -23 28 -28 163 -61 34 -8 72 -24 84 -35 17 -15 24
-17 30 -8 4 7 5 -2 2 -21 -4 -20 -3 -36 4 -40 7 -4 13 -88 17 -246 10 -434 14
-503 24 -522 5 -10 12 -30 15 -44 7 -31 19 -35 127 -45 53 -4 78 -3 83 5 4 6
22 11 39 12 27 0 29 2 12 9 -19 8 -19 9 3 9 13 1 21 5 17 10 -3 5 -1 12 5 16
5 3 10 19 10 36 0 16 5 29 10 29 6 0 10 118 10 334 0 276 3 339 15 362 9 17
11 30 5 32 -6 2 -10 13 -10 23 0 11 5 17 10 14 6 -3 14 4 19 17 6 13 10 19 10
15 1 -5 14 1 30 12 16 12 53 26 82 31 28 6 58 15 66 21 7 7 16 9 20 5 3 -3 17
1 31 10 13 9 21 11 18 5 -4 -6 -2 -9 6 -6 9 4 12 21 11 53 -2 65 -2 64 -12 57
-6 -3 -17 10 -27 30 -9 19 -20 35 -24 35 -4 0 -7 8 -6 18 0 9 -5 16 -11 14 -7
-1 -13 6 -13 16 0 11 -9 27 -20 37 -11 10 -20 24 -20 32 0 7 -4 13 -10 13 -5
0 -10 7 -10 16 0 8 -5 12 -10 9 -6 -4 -9 -3 -8 2 3 10 -47 89 -63 99 -9 5 -10
2 -6 -10 4 -10 3 -15 -4 -11 -5 4 -7 16 -3 27 4 13 2 18 -4 14 -6 -3 -15 8
-21 25 -7 21 -15 29 -25 26 -12 -5 -13 -1 -6 18 11 30 8 31 -16 8 -17 -17 -18
-17 -11 1 5 13 -2 29 -24 53 -16 19 -35 46 -40 60 -8 21 -12 23 -24 13 -8 -7
-15 -8 -15 -3 0 8 -69 35 -81 32 -2 -1 -12 -3 -21 -6z m-365 -492 c3 -14 1
-18 -9 -14 -15 6 -18 16 -7 26 9 10 10 9 16 -12z"/>
<path d="M7735 6290 c-3 -5 -1 -10 4 -10 6 0 11 5 11 10 0 6 -2 10 -4 10 -3 0
-8 -4 -11 -10z"/>
<path d="M6550 4784 c-8 -4 -23 -13 -32 -22 -17 -14 -18 -65 -18 -804 l0 -788
1075 0 1075 0 0 45 0 45 -1050 0 -1050 0 -2 133 c-1 72 0 395 1 717 l3 585
511 6 c282 3 526 7 544 8 29 1 31 3 26 34 -3 17 -7 34 -10 37 -7 7 -1056 11
-1073 4z m1405 -1574 c0 -18 -33 -26 -47 -12 -6 6 -7 15 -3 22 10 16 50 8 50
-10z"/>
<path d="M8535 4783 c-55 -2 -109 -7 -120 -12 -11 -5 -27 -12 -35 -14 -9 -4
-7 -6 7 -6 16 -1 21 -6 18 -21 -4 -19 2 -20 76 -22 184 -5 169 -8 185 37 7 22
14 41 14 43 0 1 -10 1 -22 0 -13 -1 -68 -4 -123 -5z"/>
<path d="M8753 4780 c-42 -17 -69 -102 -37 -114 9 -3 207 -6 440 -6 l424 0 0
39 c0 32 -6 44 -31 65 l-31 26 -371 -1 c-205 0 -382 -4 -394 -9z m494 -75 c9
-25 -4 -30 -90 -33 -86 -3 -114 6 -104 32 9 23 185 24 194 1z m-229 -7 c-7
-19 -38 -22 -38 -4 0 10 9 16 21 16 12 0 19 -5 17 -12z"/>
<path d="M7891 4768 c-26 -7 -31 -12 -20 -19 11 -7 10 -9 -6 -9 -17 0 -18 -2
-4 -15 13 -13 40 -15 149 -13 125 3 133 4 117 20 -12 12 -14 18 -4 21 6 3 0 6
-15 6 -16 1 -28 6 -28 11 0 13 -143 12 -189 -2z"/>
<path d="M6590 3986 l0 -686 1030 0 1030 0 0 685 0 685 -122 -7 c-68 -3 -124
-9 -126 -14 -2 -4 -9 -6 -15 -3 -9 3 -11 -109 -9 -478 1 -317 -1 -485 -8 -492
-5 -5 -10 -22 -10 -38 0 -56 -39 -118 -76 -118 -52 0 -74 25 -82 95 -2 22 -8
41 -13 43 -4 2 -8 194 -9 427 0 352 -3 431 -16 475 -9 29 -13 63 -10 76 l6 24
-144 0 c-152 0 -178 -4 -170 -24 3 -7 0 -26 -6 -41 -7 -17 -13 -138 -16 -295
-10 -633 -13 -700 -29 -735 -18 -36 -38 -45 -80 -38 -49 10 -55 33 -65 264 -5
118 -9 358 -9 533 0 206 -4 323 -11 330 -6 6 -190 11 -525 14 l-515 5 0 -687z"/>
<path d="M8700 3959 l0 -669 181 0 c117 0 178 -3 174 -10 -3 -6 -50 -10 -104
-10 -54 0 -132 -3 -174 -6 l-77 -7 0 -42 0 -41 208 -13 c114 -7 209 -15 211
-17 2 -2 -91 -4 -207 -4 l-212 0 0 -55 0 -55 173 -2 c145 -3 172 -5 172 -18 0
-13 -27 -15 -170 -18 -180 -3 -189 -5 -179 -52 9 -42 25 -67 51 -79 16 -7 145
-11 398 -11 l373 0 32 31 c27 28 31 37 28 78 -2 30 -7 45 -15 43 -7 -1 -13 2
-13 8 0 5 7 10 15 10 13 0 15 96 15 805 l0 805 -440 -1 -440 0 0 -670z m387
559 c-2 -13 -4 -5 -4 17 -1 22 1 32 4 23 2 -10 2 -28 0 -40z m103 -575 c0
-322 -2 -584 -5 -581 -4 4 -6 371 -5 986 0 100 2 182 5 182 3 0 5 -264 5 -587z
m-103 265 c-3 -7 -5 -2 -5 12 0 14 2 19 5 13 2 -7 2 -19 0 -25z m103 -1185
c86 -50 0 -185 -88 -139 -55 28 -65 109 -19 141 28 20 72 19 107 -2z m250 -13
c0 -6 -37 -10 -90 -10 -53 0 -90 4 -90 10 0 6 37 10 90 10 53 0 90 -4 90 -10z"/>
<path d="M9108 2983 c-18 -20 -9 -60 16 -69 23 -9 56 14 56 39 0 45 -43 62
-72 30z"/>
<path d="M6180 2961 c0 -18 11 -40 29 -60 l29 -31 1217 0 c1143 0 1217 1 1211
17 -4 9 -10 36 -13 60 l-6 43 -1233 0 -1234 0 0 -29z m1995 -21 c0 -13 -28
-15 -184 -18 -105 -1 -189 2 -194 7 -26 26 9 31 191 29 158 -3 187 -5 187 -18z"/>
</g>
</svg>
